PathFileType  4	(X/Y/Z) C:\Users\antoi\Documents\MyRepositories\mobilecap\ResultsAnalysis
DataRate	CameraRate	NumFrames	NumMarkers	Units	OrigDataRate	OrigDataStartFrame	OrigNumFrames
100.0	100.0	6	51	mm	100.0	1	158
Frame#	Time	r_knee			r_shank_antsup			r_ankle			r_calc			r_5meta			r_toe			L_knee			L_shank_antsup			L_ankle			L_calc			L_5meta			L_toe			r_sh2			r_sh3			r_sh4			L_sh2			L_sh3			r_thigh1			r_thigh2			r_thigh3			r_thigh4			r_thigh5			L_thigh1			L_thigh2			L_thigh3			L_thigh4			r.ASIS			r.PSIS			L.ASIS			L.PSIS			C7			R_Shoulder			L_Shoulder			R_Sternum			L_Sternum			R_humerus			R_elbow_med			R_elbow_lat			R_forearm			R_wrist_radius			R_wrist_ulna			L_humerus			L_elbow_med			L_elbow_lat			L_forearm			L_wrist_radius			L_wrist_ulna			R_HJC			L_HJC			R_HJC_reg			L_HJC_reg			
		X1	Y1	Z1	X2	Y2	Z2	X3	Y3	Z3	X4	Y4	Z4	X5	Y5	Z5	X6	Y6	Z6	X7	Y7	Z7	X8	Y8	Z8	X9	Y9	Z9	X10	Y10	Z10	X11	Y11	Z11	X12	Y12	Z12	X13	Y13	Z13	X14	Y14	Z14	X15	Y15	Z15	X16	Y16	Z16	X17	Y17	Z17	X18	Y18	Z18	X19	Y19	Z19	X20	Y20	Z20	X21	Y21	Z21	X22	Y22	Z22	X23	Y23	Z23	X24	Y24	Z24	X25	Y25	Z25	X26	Y26	Z26	X27	Y27	Z27	X28	Y28	Z28	X29	Y29	Z29	X30	Y30	Z30	X31	Y31	Z31	X32	Y32	Z32	X33	Y33	Z33	X34	Y34	Z34	X35	Y35	Z35	X36	Y36	Z36	X37	Y37	Z37	X38	Y38	Z38	X39	Y39	Z39	X40	Y40	Z40	X41	Y41	Z41	X42	Y42	Z42	X43	Y43	Z43	X44	Y44	Z44	X45	Y45	Z45	X46	Y46	Z46	X47	Y47	Z47	X48	Y48	Z48	X49	Y49	Z49	X50	Y50	Z50	X51	Y51	Z51	

1	0.00000000	86.47256	596.68075	-86.46610	145.35594	456.36694	-101.47413	153.57465	91.37046	-121.53727	102.23305	67.75423	-188.25905	296.69503	50.90407	-98.74571	330.31425	89.53747	-144.97949	-255.24973	571.59336	-361.66398	-327.44696	377.33123	-323.51326	-582.41994	193.95141	-299.27206	-644.94826	204.36536	-229.50003	-519.89112	46.32013	-329.23418	-467.90571	53.29933	-271.96700	165.74649	345.87219	-113.62255	84.02284	438.34012	-58.28603	101.41425	326.56461	-63.32628	-381.20975	421.00357	-378.67645	-459.38710	337.88002	-350.72002	9.63930	871.61287	-38.36522	66.23752	777.40546	-50.49772	22.89950	725.79890	-44.66063	-90.35539	821.48903	-60.31791	-32.47377	718.95117	-63.58715	-113.33538	846.39225	-387.07760	-144.19578	715.95765	-381.33768	-219.42327	874.69297	-392.60707	-251.56184	741.55722	-387.16189	-32.03376	1130.06829	-78.69661	-227.13849	1156.80401	-154.27423	-51.36169	1125.05042	-357.67586	-231.90562	1161.31657	-246.32577	-184.21431	1648.57688	-195.85513	-123.07413	1591.72683	-21.99426	-120.79036	1626.88066	-373.01723	-42.05562	1561.27978	-168.77609	-38.37599	1566.23031	-225.78577	-170.21693	1319.19493	26.52577	-269.80988	1222.90266	-22.80200	-261.20909	1237.90482	48.72128	-189.32148	1033.34459	67.15450	-163.44350	940.32639	63.02182	-197.38417	939.63642	82.81001	-116.36461	1331.88694	-440.62035	-208.38854	1254.44829	-396.09763	-182.75741	1252.68147	-469.28650	-87.39193	1068.60766	-491.99544	-53.11113	996.15805	-482.27283	-78.25509	995.58699	-507.79798	-111.44748	1033.16428	-111.96879	-132.33186	1034.96366	-308.32919	-103.21445	1035.17564	-119.67823	-112.74966	1044.20225	-303.80744	
2	0.01000000	98.09001	597.87889	-84.70997	154.99527	456.46968	-100.13697	155.30648	91.26846	-121.05315	103.27820	68.58568	-187.61472	298.03861	48.53696	-99.03279	332.41098	86.73806	-145.06635	-232.65559	570.39220	-363.46435	-309.29477	378.34320	-325.20115	-568.86723	203.56519	-299.68202	-629.70140	218.17569	-229.80414	-516.19451	52.21719	-329.05865	-463.71828	55.42882	-272.13263	173.02957	345.68700	-112.50948	93.75242	439.54599	-56.24147	109.20372	327.54246	-61.18448	-361.79877	423.68674	-379.92102	-442.21532	342.98708	-351.72178	21.68590	873.22687	-36.35904	78.02225	778.79594	-48.00408	34.71687	727.40927	-42.68231	-78.05940	823.18190	-58.88630	-20.71336	720.48429	-62.09432	-96.16099	847.45249	-386.54161	-124.40127	716.42197	-382.25336	-202.83363	873.62196	-391.39151	-232.16710	739.97219	-387.04360	-19.33316	1132.94053	-77.02909	-214.15994	1158.34279	-154.06467	-38.15668	1126.73733	-355.96626	-219.01147	1162.61755	-246.32243	-171.63309	1650.33401	-193.72782	-110.29512	1593.58367	-20.00146	-107.85438	1629.36551	-370.86569	-29.26372	1563.26689	-166.82884	-25.74793	1568.29412	-223.70765	-156.61259	1320.84403	27.87084	-255.78792	1224.47940	-21.93890	-247.46794	1239.35585	49.71653	-175.79191	1034.78346	68.22987	-150.12027	941.58942	64.02234	-183.96039	941.06639	83.70153	-104.37407	1334.42317	-438.59567	-196.45263	1257.71204	-393.41988	-171.21945	1255.49546	-466.73007	-78.10305	1070.52644	-490.46865	-44.84344	997.68942	-480.88206	-69.89295	997.54303	-506.44073	-98.40550	1035.54299	-110.50343	-118.46100	1036.41862	-306.95177	-89.60140	1037.33693	-117.75596	-99.28350	1045.86927	-301.87124	
3	0.02000000	109.29860	598.99067	-83.03102	164.23323	456.53213	-98.89626	156.90292	91.19282	-120.62390	104.24088	69.35616	-187.04140	299.29273	46.39584	-99.28927	334.37088	84.13440	-145.17172	-209.74562	569.20870	-365.22488	-290.73701	379.42384	-326.89649	-554.71150	213.18254	-300.14059	-613.70217	232.00728	-230.18249	-512.05295	58.45733	-328.92008	-459.18579	57.77732	-272.38757	179.99272	345.47896	-111.48553	103.08400	440.67221	-54.32779	116.62759	328.45012	-59.20285	-341.95657	426.44131	-381.16924	-424.56498	348.15471	-352.75053	33.56068	874.74450	-34.35691	89.48689	780.01731	-45.54727	46.12796	728.90716	-40.77717	-65.98639	824.93890	-57.55720	-9.30360	722.01213	-60.69776	-78.93967	848.57096	-386.05137	-104.40743	716.95124	-383.17471	-186.19632	872.49923	-390.17737	-212.59641	738.35590	-386.99109	-6.59359	1135.77503	-75.47436	-201.21710	1159.93848	-153.73047	-25.12140	1128.48456	-354.33669	-206.19731	1163.95080	-246.17830	-159.09073	1652.12403	-191.59554	-97.48221	1595.45546	-18.01743	-94.93201	1631.84855	-368.69800	-16.51557	1565.25424	-164.89407	-13.14261	1570.36665	-221.64826	-143.04813	1322.53067	29.24868	-241.85191	1226.12083	-21.00875	-233.78503	1240.85857	50.77773	-162.21356	1036.30020	69.32049	-136.67142	942.95615	65.02522	-170.44278	942.57220	84.61239	-92.42627	1336.97941	-436.58790	-184.64346	1261.04174	-390.82721	-159.75027	1258.36037	-464.26529	-68.78062	1072.53189	-488.94796	-36.55112	999.31251	-479.52186	-61.46028	999.58243	-505.09748	-85.35580	1037.91533	-109.07703	-104.76261	1037.93194	-305.59437	-76.06232	1039.58249	-115.88022	-85.97938	1047.57332	-299.96341	
4	0.03000000	119.75238	599.93811	-81.48660	172.72587	456.51665	-97.79403	158.26232	91.15752	-120.28691	105.06296	70.02319	-186.58533	300.38482	44.63481	-99.48772	336.08962	81.86862	-145.30346	-186.28440	568.07935	-366.90691	-271.41650	380.63653	-328.60895	-539.45396	222.76245	-300.69395	-596.32451	245.81578	-230.68877	-507.08194	65.27211	-328.84513	-454.00003	60.51282	-272.81430	186.36016	345.22501	-110.59155	111.65256	441.65409	-52.65718	123.33828	329.22967	-57.52278	-321.34095	429.31654	-382.42168	-406.04861	353.41471	-353.82962	45.13282	876.11215	-32.38386	100.39346	780.96783	-43.17592	56.83969	730.23059	-39.00210	-54.31443	826.81578	-56.39475	1.50948	723.54383	-59.45643	-61.63352	849.79940	-385.64223	-84.07938	717.61028	-384.09972	-169.46979	871.30256	-388.97535	-192.72606	736.70315	-387.04174	6.20996	1138.53845	-74.12704	-188.34493	1161.64038	-153.17184	-12.39918	1130.33700	-352.85209	-193.53693	1165.34166	-245.77912	-146.62021	1653.97267	-189.45344	-84.61023	1597.34752	-16.04967	-82.06193	1634.32615	-366.50665	-3.84605	1567.24268	-162.98894	-0.58240	1572.45224	-219.62918	-129.55546	1324.27794	30.68668	-228.07395	1227.86641	-19.94564	-220.20329	1242.44353	51.96444	-148.54490	1037.94930	70.44059	-123.00088	944.50109	66.03365	-156.75350	944.20422	85.55893	-80.57168	1339.56467	-434.61709	-173.05386	1264.46344	-388.40549	-148.40379	1261.30511	-461.97089	-59.40376	1074.68264	-487.44959	-28.19948	1001.08600	-478.21585	-52.90108	1001.76130	-503.78646	-72.30062	1040.27539	-107.72157	-91.38575	1039.54855	-304.27339	-62.66435	1041.98552	-114.08561	-72.98133	1049.34155	-298.10109	
5	0.04000000	129.21406	600.66582	-80.09997	180.23247	456.39429	-96.79640	159.33614	91.15909	-120.05247	105.72417	70.57222	-186.25512	301.27180	43.29995	-99.60839	337.51470	79.99968	-145.45688	-162.18224	567.07209	-368.47683	-251.08448	382.03443	-330.34716	-522.78642	232.19521	-301.38047	-577.18270	259.44441	-231.33942	-500.98373	72.71008	-328.84804	-447.89367	63.72344	-273.48158	191.93631	344.90559	-109.80000	119.16613	442.45329	-51.30471	129.04380	329.84586	-56.24486	-299.76985	432.32690	-383.67430	-386.44279	358.75143	-354.97426	56.32724	877.33790	-30.49273	110.62888	781.64484	-40.95227	66.72711	731.39004	-37.38634	-43.15364	828.84987	-55.40387	11.62731	725.10203	-58.37326	-44.23255	851.18054	-385.33298	-63.39533	718.46420	-385.01469	-152.63570	870.05734	-387.80872	-172.52419	735.04974	-387.19016	19.07126	1141.20549	-73.04936	-175.58482	1163.48154	-152.33418	-0.09350	1132.31409	-351.55325	-181.09866	1166.80406	-245.05966	-134.25296	1655.89270	-187.29834	-71.67773	1599.25065	-14.10536	-69.32691	1636.79269	-364.29956	8.71467	1569.23301	-161.13843	11.90190	1574.54943	-217.67749	-116.16063	1326.08590	32.20144	-214.51043	1229.71642	-18.69019	-206.74844	1244.10912	53.32336	-134.76708	1039.74828	71.60198	-109.06713	946.25221	67.05121	-142.84828	945.97295	86.55253	-68.87759	1342.17187	-432.70920	-161.73334	1267.94310	-386.23424	-137.22011	1264.32409	-459.90289	-49.97607	1076.99528	-486.00365	-19.74886	1003.02062	-476.97893	-44.18855	1004.09406	-502.53296	-59.26585	1042.61748	-106.45904	-78.44359	1041.29080	-303.00106	-49.46878	1044.59406	-112.39067	-60.40382	1051.18499	-296.28880	
6	0.05000000	137.58228	601.15742	-78.85524	186.64680	456.15236	-95.81239	160.12900	91.18123	-119.90500	106.24021	71.01500	-186.02507	301.94502	42.33979	-99.64309	338.64681	78.50528	-145.62248	-137.48654	566.28593	-369.91378	-229.62670	383.65870	-332.11087	-504.60964	241.32601	-302.22396	-556.17262	272.63629	-232.10697	-493.51892	80.64646	-328.94046	-440.59876	67.43119	-274.44162	196.63120	344.51106	-109.02992	125.45392	443.06330	-50.29329	133.56420	330.29217	-55.40724	-277.21855	435.45616	-384.92232	-365.68909	364.10752	-356.18985	67.12523	878.48106	-28.75062	120.20875	782.12942	-38.93952	75.82275	732.45561	-35.92748	-32.53787	831.05432	-54.53352	21.07889	726.71046	-57.40004	-26.75140	852.75218	-385.12616	-42.43220	719.57883	-385.89640	-135.69696	868.83414	-386.70826	-152.03372	733.46846	-387.39246	31.95698	1143.76529	-72.26448	-162.97849	1165.47495	-151.21605	11.74557	1134.41035	-350.45634	-168.93557	1168.34225	-244.01401	-122.01413	1657.88459	-185.12805	-58.70429	1601.14586	-12.19150	-56.84238	1639.24591	-362.09949	21.14315	1571.22715	-159.37309	24.27078	1576.65525	-215.82465	-102.87672	1327.93443	33.79757	-201.19318	1231.63692	-17.19590	-193.42247	1245.82668	54.88613	-120.88172	1041.68073	72.81445	-94.87526	948.19393	68.08151	-128.71038	947.85344	87.60043	-57.41776	1344.78475	-430.89522	-150.69067	1271.39939	-384.36943	-126.22588	1267.38256	-458.08822	-40.51875	1079.45223	-484.64843	-11.16055	1005.09029	-475.81975	-35.32133	1006.55977	-501.36797	-46.29516	1044.93919	-105.30156	-65.99779	1043.15857	-301.78649	-36.51960	1047.42148	-110.80099	-48.31257	1053.10011	-294.52549	
